HIERARCHY
ROOT Hips
{
	OFFSET 0.000000 83.214638 0.000000
	CHANNELS 6 Xposition Yposition Zposition Xrotation Yrotation Zrotation
	JOINT Pelvis
	{
		OFFSET 0.000000 0.000000 0.000000
		CHANNELS 3 Xrotation Yrotation Zrotation
		JOINT LeftUpLeg
		{
			OFFSET 8.479700 -4.795502 -0.379100
			CHANNELS 3 Xrotation Yrotation Zrotation
			JOINT LeftLeg
			{
				OFFSET 0.024144 -32.555107 0.112900
				CHANNELS 3 Xrotation Yrotation Zrotation
				JOINT LeftFoot
				{
					OFFSET -0.024144 -32.638630 -3.012600
					CHANNELS 3 Xrotation Yrotation Zrotation
					JOINT LeftToeBase
					{
						OFFSET 0.970200 -13.225400 11.864200
						CHANNELS 3 Xrotation Yrotation Zrotation
						End Site
						{
							OFFSET 0.000000 12.319262 0.000000
						}
					}
					JOINT LFootTongue
					{
						OFFSET 1.142400 -1.059800 6.665200
						CHANNELS 3 Xrotation Yrotation Zrotation
						End Site
						{
							OFFSET 0.000000 12.319262 0.000000
						}
					}
				}
				JOINT LeftPantLeg
				{
					OFFSET 0.918482 -16.533964 -2.284700
					CHANNELS 3 Xrotation Yrotation Zrotation
					End Site
					{
						OFFSET 0.350399 24.744368 0.000000
					}
				}
			}
		}
		JOINT RightUpLeg
		{
			OFFSET -8.479700 -4.795502 -0.379100
			CHANNELS 3 Xrotation Yrotation Zrotation
			JOINT RightLeg
			{
				OFFSET -0.023144 -32.555092 0.112900
				CHANNELS 3 Xrotation Yrotation Zrotation
				JOINT RightFoot
				{
					OFFSET 0.023144 -32.638641 -3.012700
					CHANNELS 3 Xrotation Yrotation Zrotation
					JOINT RightToeBase
					{
						OFFSET -0.970200 -13.225400 11.864200
						CHANNELS 3 Xrotation Yrotation Zrotation
						End Site
						{
							OFFSET 0.000000 12.319244 0.000000
						}
					}
					JOINT RFootTongue
					{
						OFFSET -1.142200 -1.059800 6.665200
						CHANNELS 3 Xrotation Yrotation Zrotation
						End Site
						{
							OFFSET 0.000000 12.319243 0.000000
						}
					}
				}
				JOINT RightPantLeg
				{
					OFFSET -0.919482 -16.533978 -2.284800
					CHANNELS 3 Xrotation Yrotation Zrotation
					End Site
					{
						OFFSET -0.350400 24.744419 0.000000
					}
				}
			}
		}
	}
	JOINT Spine
	{
		OFFSET 0.000000 7.722000 1.166200
		CHANNELS 3 Xrotation Yrotation Zrotation
		JOINT Spine1
		{
			OFFSET 0.000000 12.024101 0.248800
			CHANNELS 3 Xrotation Yrotation Zrotation
			JOINT Spine2
			{
				OFFSET 0.000000 11.502998 -0.491200
				CHANNELS 3 Xrotation Yrotation Zrotation
				JOINT Neck
				{
					OFFSET 0.000000 18.430702 -3.123100
					CHANNELS 3 Xrotation Yrotation Zrotation
					JOINT Head
					{
						OFFSET 0.000000 9.051102 1.034000
						CHANNELS 3 Xrotation Yrotation Zrotation
						JOINT HairB
						{
							OFFSET 0.208400 24.786102 24.822300
							CHANNELS 3 Xrotation Yrotation Zrotation
							End Site
							{
								OFFSET 0.000000 32.263779 0.000000
							}
						}
						JOINT HairA
						{
							OFFSET -7.081100 24.428299 23.196600
							CHANNELS 3 Xrotation Yrotation Zrotation
							End Site
							{
								OFFSET 0.000000 32.263779 0.000000
							}
						}
						JOINT Hat
						{
							OFFSET 16.728800 15.048294 -15.439601
							CHANNELS 3 Xrotation Yrotation Zrotation
							End Site
							{
								OFFSET 0.000000 32.263779 0.000000
							}
						}
					}
				}
				JOINT LeftShoulder
				{
					OFFSET 6.197800 13.665199 -4.064700
					CHANNELS 3 Xrotation Yrotation Zrotation
					JOINT LeftArm
					{
						OFFSET 7.778100 -0.187103 -1.709300
						CHANNELS 3 Xrotation Yrotation Zrotation
						JOINT LeftForeArm
						{
							OFFSET 22.049376 0.000000 0.000000
							CHANNELS 3 Xrotation Yrotation Zrotation
							JOINT LeftHand
							{
								OFFSET 23.009392 0.000000 0.000000
								CHANNELS 3 Xrotation Yrotation Zrotation
								JOINT LeftHandThumb1
								{
									OFFSET 3.507191 -2.063065 3.133727
									CHANNELS 3 Xrotation Yrotation Zrotation
									JOINT LeftHandThumb2
									{
										OFFSET 3.101337 -1.790558 1.790558
										CHANNELS 3 Xrotation Yrotation Zrotation
										JOINT LeftHandThumb3
										{
											OFFSET 3.058640 -1.765907 1.765906
											CHANNELS 3 Xrotation Yrotation Zrotation
											End Site
											{
												OFFSET -0.415260 3.926476 -0.049563
											}
										}
									}
								}
								JOINT LeftHandIndex1
								{
									OFFSET 11.334419 -0.901459 3.706815
									CHANNELS 3 Xrotation Yrotation Zrotation
									JOINT LeftHandIndex2
									{
										OFFSET 3.283112 0.000000 0.000000
										CHANNELS 3 Xrotation Yrotation Zrotation
										JOINT LeftHandIndex3
										{
											OFFSET 3.323853 0.000000 0.000000
											CHANNELS 3 Xrotation Yrotation Zrotation
											End Site
											{
												OFFSET -1.135597 3.097809 0.402452
											}
										}
									}
								}
								JOINT LeftHandMiddle1
								{
									OFFSET 11.335861 0.000000 0.000000
									CHANNELS 3 Xrotation Yrotation Zrotation
									JOINT LeftHandMiddle2
									{
										OFFSET 3.410492 0.000000 0.000000
										CHANNELS 3 Xrotation Yrotation Zrotation
										JOINT LeftHandMiddle3
										{
											OFFSET 3.312172 0.000000 0.000000
											CHANNELS 3 Xrotation Yrotation Zrotation
											End Site
											{
												OFFSET -1.150200 3.080154 0.400270
											}
										}
									}
								}
								JOINT LeftHandRing1
								{
									OFFSET 11.514786 -0.013176 -3.003090
									CHANNELS 3 Xrotation Yrotation Zrotation
									JOINT LeftHandRing2
									{
										OFFSET 3.053307 0.000000 0.000000
										CHANNELS 3 Xrotation Yrotation Zrotation
										JOINT LeftHandRing3
										{
											OFFSET 3.295807 0.000000 0.000000
											CHANNELS 3 Xrotation Yrotation Zrotation
											End Site
											{
												OFFSET -1.281006 3.013344 0.375733
											}
										}
									}
								}
								JOINT LeftHandPinky1
								{
									OFFSET 10.518692 -0.960396 -5.730441
									CHANNELS 3 Xrotation Yrotation Zrotation
									JOINT LeftHandPinky2
									{
										OFFSET 2.861649 0.000000 0.000000
										CHANNELS 3 Xrotation Yrotation Zrotation
										JOINT LeftHandPinky3
										{
											OFFSET 2.863380 0.000000 0.000000
											CHANNELS 3 Xrotation Yrotation Zrotation
											End Site
											{
												OFFSET -0.843597 2.711159 0.369971
											}
										}
									}
								}
							}
							JOINT LSleeve
							{
								OFFSET 6.676277 -0.344902 -1.011730
								CHANNELS 3 Xrotation Yrotation Zrotation
								End Site
								{
									OFFSET 0.000000 14.885353 0.000000
								}
							}
						}
					}
				}
				JOINT RightShoulder
				{
					OFFSET -6.197800 13.665199 -4.064700
					CHANNELS 3 Xrotation Yrotation Zrotation
					JOINT RightArm
					{
						OFFSET -7.778100 -0.187103 -1.709300
						CHANNELS 3 Xrotation Yrotation Zrotation
						JOINT RightForeArm
						{
							OFFSET -22.049376 0.000000 0.000000
							CHANNELS 3 Xrotation Yrotation Zrotation
							JOINT RightHand
							{
								OFFSET -23.009392 0.000000 0.000000
								CHANNELS 3 Xrotation Yrotation Zrotation
								JOINT RightHandThumb1
								{
									OFFSET -3.507191 -2.063065 3.133727
									CHANNELS 3 Xrotation Yrotation Zrotation
									JOINT RightHandThumb2
									{
										OFFSET -3.101337 -1.790558 1.790558
										CHANNELS 3 Xrotation Yrotation Zrotation
										JOINT RightHandThumb3
										{
											OFFSET -3.058640 -1.765907 1.765906
											CHANNELS 3 Xrotation Yrotation Zrotation
											End Site
											{
												OFFSET 0.415260 3.926476 -0.049563
											}
										}
									}
								}
								JOINT RightHandIndex1
								{
									OFFSET -11.334419 -0.901459 3.706815
									CHANNELS 3 Xrotation Yrotation Zrotation
									JOINT RightHandIndex2
									{
										OFFSET -3.283112 0.000000 0.000000
										CHANNELS 3 Xrotation Yrotation Zrotation
										JOINT RightHandIndex3
										{
											OFFSET -3.323853 0.000000 0.000000
											CHANNELS 3 Xrotation Yrotation Zrotation
											End Site
											{
												OFFSET 1.135597 3.097809 0.402452
											}
										}
									}
								}
								JOINT RightHandMiddle1
								{
									OFFSET -11.335861 0.000000 0.000000
									CHANNELS 3 Xrotation Yrotation Zrotation
									JOINT RightHandMiddle2
									{
										OFFSET -3.410492 0.000000 0.000000
										CHANNELS 3 Xrotation Yrotation Zrotation
										JOINT RightHandMiddle3
										{
											OFFSET -3.312172 0.000000 0.000000
											CHANNELS 3 Xrotation Yrotation Zrotation
											End Site
											{
												OFFSET 1.150200 3.080154 0.400270
											}
										}
									}
								}
								JOINT RightHandRing1
								{
									OFFSET -11.514786 -0.013176 -3.003090
									CHANNELS 3 Xrotation Yrotation Zrotation
									JOINT RightHandRing2
									{
										OFFSET -3.053307 0.000000 0.000000
										CHANNELS 3 Xrotation Yrotation Zrotation
										JOINT RightHandRing3
										{
											OFFSET -3.295807 0.000000 0.000000
											CHANNELS 3 Xrotation Yrotation Zrotation
											End Site
											{
												OFFSET 1.281006 3.013344 0.375733
											}
										}
									}
								}
								JOINT RightHandPinky1
								{
									OFFSET -10.518692 -0.960396 -5.730441
									CHANNELS 3 Xrotation Yrotation Zrotation
									JOINT RightHandPinky2
									{
										OFFSET -2.861649 0.000000 0.000000
										CHANNELS 3 Xrotation Yrotation Zrotation
										JOINT RightHandPinky3
										{
											OFFSET -2.863380 0.000000 0.000000
											CHANNELS 3 Xrotation Yrotation Zrotation
											End Site
											{
												OFFSET 0.843597 2.711159 0.369971
											}
										}
									}
								}
							}
							JOINT RSleeve
							{
								OFFSET -6.676277 -0.344902 -1.011730
								CHANNELS 3 Xrotation Yrotation Zrotation
								End Site
								{
									OFFSET 0.000000 14.885353 0.000000
								}
							}
						}
					}
				}
				JOINT Backpack
				{
					OFFSET 0.000000 -2.471497 36.677502
					CHANNELS 3 Xrotation Yrotation Zrotation
					End Site
					{
						OFFSET 0.000000 20.427315 0.000000
					}
				}
				JOINT Hood
				{
					OFFSET 0.000000 18.754097 -10.431000
					CHANNELS 3 Xrotation Yrotation Zrotation
					JOINT Hood1
					{
						OFFSET 0.000000 -5.011002 -7.685901
						CHANNELS 3 Xrotation Yrotation Zrotation
						End Site
						{
							OFFSET 0.000000 9.175140 0.000000
						}
					}
				}
				JOINT LHoodieString
				{
					OFFSET 5.250500 16.397697 3.089900
					CHANNELS 3 Xrotation Yrotation Zrotation
					JOINT LHoodieString1
					{
						OFFSET 0.257700 -6.364304 3.694600
						CHANNELS 3 Xrotation Yrotation Zrotation
						JOINT LHoodieString2
						{
							OFFSET 0.000000 -9.643799 2.679100
							CHANNELS 3 Xrotation Yrotation Zrotation
							End Site
							{
								OFFSET 0.000000 10.009018 0.000000
							}
						}
					}
				}
				JOINT RHoodieString
				{
					OFFSET -5.250500 16.397697 3.089900
					CHANNELS 3 Xrotation Yrotation Zrotation
					JOINT RHoodieString1
					{
						OFFSET -0.257700 -6.364304 3.694600
						CHANNELS 3 Xrotation Yrotation Zrotation
						JOINT RHoodieString2
						{
							OFFSET 0.000000 -9.643799 2.679100
							CHANNELS 3 Xrotation Yrotation Zrotation
							End Site
							{
								OFFSET 0.000000 10.009018 0.000000
							}
						}
					}
				}
			}
			JOINT LBackpack_Strap
			{
				OFFSET 15.223200 -7.719803 -6.610900
				CHANNELS 3 Xrotation Yrotation Zrotation
				End Site
				{
					OFFSET 0.000000 16.040596 0.000000
				}
			}
			JOINT RBackpack_Strap
			{
				OFFSET -15.223000 -7.719803 -6.610900
				CHANNELS 3 Xrotation Yrotation Zrotation
				End Site
				{
					OFFSET 0.000000 16.040596 0.000000
				}
			}
		}
	}
	JOINT BoyFacialAnim_Joint
	{
		OFFSET 1.000000 -82.208099 -1.550900
		CHANNELS 3 Xrotation Yrotation Zrotation
		End Site
		{
			OFFSET 0.000000 30.012791 0.000000
		}
	}
}
MOTION
Frames: 4
Frame Time: 0.016667
0.331327 67.204544 1.880013 26.339236 -23.141793 8.780178 -0.000000 0.000001 -0.000000 -76.105752 -0.919443 22.291729 59.478763 -0.493612 4.949315 -5.477903 1.586405 -17.219800 -0.000000 0.000000 0.000000 -0.000000 0.000000 0.000000 -0.000000 -0.000000 0.000001 -71.805130 -6.130137 -21.394304 64.038904 -1.427219 -7.665446 -14.240658 -2.971823 16.225464 0.000000 0.000000 -0.000000 0.000000 0.000000 -0.000000 0.000002 -0.000003 -0.000000 14.946961 2.607868 -0.826633 8.954931 1.454253 -0.667652 8.929228 1.567215 -0.769626 -7.642832 3.429839 -7.508564 -43.074779 9.987860 7.921034 0.000000 0.000000 -0.000001 0.000000 0.000000 -0.000001 0.000000 0.000000 -0.000001 3.858310 -6.469474 9.422132 -49.881049 5.784874 -65.370928 0.004579 -89.198377 0.004939 6.361842 1.183438 20.596050 -17.636588 -15.237869 2.797092 5.947450 34.911665 2.502019 0.000001 0.000001 0.000000 0.388058 -2.283085 19.290703 0.587322 2.787375 -23.793317 -0.000000 -0.000000 -0.000004 0.388686 -2.284886 19.306728 0.588108 2.789111 -23.809346 -0.000000 -0.000001 -0.000002 0.388053 -2.283061 19.290705 0.587308 2.787354 -23.793324 -0.000000 0.000000 -0.000000 -0.967845 1.537881 19.792317 0.593535 -1.271996 -24.261662 -0.000001 0.000001 -0.000000 -0.000001 -0.000001 -0.000001 3.960224 12.222857 4.273396 -38.946907 11.840052 48.020827 -0.003971 93.734962 0.003935 19.436169 10.205506 7.992463 30.641403 13.211250 -0.281789 7.057639 -37.365868 -1.833673 -0.000000 0.000001 0.000000 0.155604 1.465720 -12.119888 0.379780 -2.270641 18.987432 0.000000 0.000001 -0.000001 0.155603 1.465710 -12.119889 0.379777 -2.270639 18.987432 -0.000002 -0.000000 -0.000002 0.155595 1.465713 -12.119882 0.379772 -2.270638 18.987432 0.000003 -0.000001 0.000002 0.155598 1.465709 -12.119887 0.379773 -2.270643 18.987432 -0.000002 -0.000000 0.000002 -0.000001 0.000000 -0.000001 -0.000002 -0.000000 0.000002 -0.000002 -0.000000 0.000002 -0.000002 -0.000000 0.000002 -0.000002 -0.000000 0.000002 -0.000002 -0.000000 -0.000000 0.000003 -0.000001 0.000002 -0.000002 -0.000000 0.000002 -0.000002 -0.000000 -0.000000 0.000003 -0.000001 0.000002 0.000002 -0.000000 0.000000 0.000002 -0.000000 0.000000 -0.000000 0.000001 -0.000000 
0.315178 67.279457 1.949871 26.464767 -23.206633 8.830622 0.000000 0.000002 -0.000000 -76.039014 -0.856882 22.338101 59.375306 -0.544441 4.969864 -5.565022 1.602176 -17.278176 -0.000000 0.000000 -0.000000 -0.000000 0.000000 0.000000 -0.000000 0.000001 -0.000000 -71.743057 -6.228412 -21.279270 63.838254 -1.543599 -7.790874 -14.261350 -2.822342 16.175227 0.000000 0.000000 0.000000 0.000000 0.000000 0.000000 -0.000000 0.000000 0.000003 14.954645 2.476573 -0.862314 8.942666 1.377978 -0.669283 8.917261 1.494831 -0.768339 -7.594618 3.504786 -7.365773 -43.161318 10.368546 7.992464 0.000001 -0.000000 -0.000001 0.000001 -0.000000 -0.000001 0.000001 -0.000000 -0.000001 3.797565 -6.379666 8.897872 -49.025059 5.833130 -65.558587 -0.002927 -90.336232 -0.002482 6.494231 1.888115 21.591264 -17.777632 -15.392972 2.760397 5.958664 35.079934 2.510940 0.000002 0.000000 -0.000001 0.392770 -2.296500 19.408841 0.610803 2.839942 -24.271490 -0.000007 -0.000001 -0.000004 0.393415 -2.298321 19.424860 0.611596 2.841710 -24.287497 -0.000000 -0.000001 -0.000000 0.392773 -2.296493 19.408845 0.610805 2.839947 -24.271490 -0.000002 -0.000001 -0.000001 -0.970978 1.521646 19.910034 0.617400 -1.219599 -24.738155 0.000000 -0.000000 -0.000000 0.000000 0.000001 -0.000001 3.972533 12.168643 4.140055 -38.744439 11.705569 49.039976 -0.000742 95.072060 0.000678 22.139742 11.186726 7.333647 30.626445 13.316658 -0.202575 7.068308 -37.497759 -1.838794 -0.000000 0.000001 0.000001 0.168387 1.523988 -12.609643 0.421761 -2.389093 20.020297 -0.000005 0.000001 0.000004 0.168395 1.523978 -12.609649 0.421763 -2.389085 20.020295 0.000001 0.000000 -0.000004 0.168388 1.523974 -12.609647 0.421765 -2.389076 20.020294 -0.000003 -0.000000 0.000000 0.168392 1.523986 -12.609649 0.421757 -2.389101 20.020283 0.000003 -0.000001 -0.000002 0.000001 -0.000000 -0.000000 -0.000000 0.000001 -0.000002 -0.000000 0.000001 -0.000002 -0.000000 0.000001 -0.000002 -0.000000 0.000001 -0.000002 -0.000000 0.000001 -0.000002 0.000001 -0.000001 0.000002 -0.000000 0.000001 -0.000002 -0.000000 0.000001 -0.000002 0.000001 -0.000001 0.000002 -0.000003 0.000001 0.000000 -0.000003 0.000001 0.000000 0.000000 0.000002 -0.000000 
0.289003 67.328873 2.001408 26.611978 -23.287694 8.898218 0.000001 -0.000001 0.000000 -76.013332 -0.834281 22.395970 59.312222 -0.569377 4.995814 -5.648873 1.621645 -17.372065 0.000000 -0.000000 -0.000000 0.000000 -0.000000 -0.000000 0.000000 -0.000000 0.000000 -71.746984 -6.290012 -21.139111 63.717435 -1.531428 -7.892900 -14.288267 -2.812571 16.114892 0.000000 -0.000001 0.000000 0.000000 -0.000001 0.000000 -0.000000 0.000001 -0.000001 14.960628 2.332454 -0.878394 8.932683 1.291005 -0.662409 8.908010 1.411639 -0.757965 -7.575341 3.601990 -7.236720 -43.266667 10.835729 8.058440 0.000001 -0.000000 -0.000000 0.000001 -0.000000 -0.000000 0.000001 -0.000000 -0.000000 3.730453 -6.286349 8.218747 -48.220220 5.755341 -65.566599 -0.004400 -91.419466 -0.004451 6.568277 2.351819 22.524169 -17.920166 -15.550481 2.725549 5.970019 35.250504 2.519958 -0.000001 0.000000 0.000000 0.397596 -2.310105 19.528564 0.616513 2.852534 -24.386239 0.000001 0.000001 -0.000003 0.398243 -2.311920 19.544576 0.617316 2.854281 -24.402256 -0.000003 0.000000 0.000002 0.397590 -2.310100 19.528573 0.616511 2.852540 -24.386248 -0.000000 0.000000 -0.000002 -0.974125 1.505208 20.029362 0.623208 -1.207070 -24.852516 -0.000000 0.000000 -0.000002 -0.000000 -0.000001 0.000001 3.981627 12.107280 3.979453 -38.415842 11.620497 49.978765 -0.000421 96.616475 0.000389 23.882040 11.595314 6.699890 30.612881 13.427150 -0.120945 7.079127 -37.631450 -1.843956 0.000000 0.000001 0.000000 0.181680 1.582217 -13.100017 0.465949 -2.506936 21.054743 -0.000003 -0.000001 0.000002 0.181679 1.582208 -13.100022 0.465961 -2.506930 21.054755 0.000002 -0.000000 -0.000000 0.181683 1.582210 -13.100019 0.465945 -2.506934 21.054743 0.000002 0.000000 0.000002 0.181679 1.582208 -13.100022 0.465953 -2.506937 21.054738 0.000001 -0.000000 0.000000 -0.000002 -0.000001 -0.000000 -0.000002 0.000000 -0.000000 -0.000002 0.000000 -0.000000 -0.000002 0.000000 -0.000000 -0.000002 0.000000 -0.000000 -0.000002 0.000000 -0.000000 0.000001 0.000001 0.000000 -0.000002 0.000000 -0.000000 -0.000002 0.000000 -0.000000 0.000001 0.000001 0.000000 -0.000000 0.000001 -0.000001 -0.000000 0.000001 -0.000001 0.000001 -0.000001 0.000000 
0.251861 67.354263 2.036194 26.779346 -23.380144 8.985694 -0.000001 0.000002 -0.000001 -76.025702 -0.841507 22.460555 59.283228 -0.573146 5.030321 -5.728786 1.643757 -17.493219 -0.000000 0.000000 0.000000 -0.000000 0.000000 0.000000 0.000001 0.000000 -0.000001 -71.812561 -6.314611 -20.977533 63.660956 -1.526670 -8.000263 -14.323084 -2.813726 16.082396 0.000000 -0.000001 0.000000 0.000000 -0.000001 0.000000 -0.000000 0.000004 -0.000001 14.969352 2.186092 -0.872580 8.925409 1.196944 -0.646758 8.901919 1.320520 -0.738020 -7.587594 3.716965 -7.129049 -43.385003 11.376623 8.087226 -0.000000 0.000000 0.000000 -0.000000 0.000000 0.000000 -0.000000 0.000000 0.000000 3.660233 -6.192010 7.427265 -47.464019 5.638785 -65.420959 -0.013370 -92.433961 -0.013275 6.579939 2.602510 23.316912 -18.073929 -15.721285 2.690569 5.981517 35.423437 2.529111 0.000002 -0.000001 0.000001 0.402502 -2.323876 19.649991 0.622315 2.865296 -24.502624 -0.000004 -0.000002 -0.000002 0.403160 -2.325685 19.665998 0.623113 2.867029 -24.518641 -0.000000 0.000000 -0.000002 0.402497 -2.323879 19.649988 0.622307 2.865293 -24.502612 0.000001 0.000000 -0.000000 -0.977275 1.488537 20.150356 0.629095 -1.194362 -24.968475 -0.000001 -0.000000 -0.000000 -0.000001 0.000000 0.000003 3.982094 12.033532 3.810701 -38.063285 11.622200 50.879636 -0.000121 98.202062 0.000114 24.991838 11.467083 6.028754 30.609442 13.454871 -0.100490 7.090095 -37.767009 -1.849177 -0.000000 0.000000 -0.000000 0.195496 1.640399 -13.591127 0.512333 -2.624132 22.090893 0.000002 0.000001 0.000002 0.195495 1.640400 -13.591129 0.512334 -2.624128 22.090913 -0.000003 0.000001 0.000000 0.195494 1.640394 -13.591136 0.512324 -2.624127 22.090905 -0.000002 -0.000002 -0.000002 0.195499 1.640387 -13.591135 0.512322 -2.624122 22.090894 -0.000005 0.000000 0.000000 -0.000001 -0.000001 -0.000000 0.000001 0.000000 0.000000 0.000001 0.000000 0.000000 0.000001 0.000000 0.000000 0.000001 0.000000 0.000000 0.000001 0.000000 -0.000001 0.000000 -0.000000 0.000000 0.000001 0.000000 0.000000 0.000001 0.000000 -0.000001 0.000000 -0.000000 0.000000 0.000002 -0.000001 -0.000000 0.000002 -0.000001 -0.000000 -0.000001 0.000002 -0.000001 
